<?xml version="1.0" encoding="utf-8"?>
<!-- Svg Vector Icons : http://www.onlinewebfonts.com/icon -->
<!DOCTYPE svg PUBLIC "-//W3C//DTD SVG 1.1//EN" "http://www.w3.org/Graphics/SVG/1.1/DTD/svg11.dtd">
<svg version="1.1" xmlns="http://www.w3.org/2000/svg" xmlns:xlink="http://www.w3.org/1999/xlink" x="0px" y="0px" viewBox="0 0 1000 1000" enable-background="new 0 0 1000 1000" xml:space="preserve">
<metadata> Svg Vector Icons : http://www.onlinewebfonts.com/icon </metadata>
<g><g transform="translate(0.000000,511.000000) scale(0.100000,-0.100000)"><path d="M9268.8,4870.5c-88.1-28.7-158.9-80.4-369.6-266.1c-291-254.7-325.5-273.8-622.3-317.9c-547.6-82.3-838.7-218.3-1160.3-545.7c-273.8-279.6-402.1-503.6-612.7-1079.9c-273.8-742.9-363.8-848.2-955.5-1112.5c-472.9-212.5-764-407.8-1034-691.2C4303.9,635,4206.2,474.2,3932.4-98.3C3829-314.7,3779.2-395.1,3706.5-466c-157-153.2-394.4-285.3-804.2-446.1c-476.8-189.6-652.9-270-876.9-402.1c-405.9-239.3-637.6-484.4-832.9-880.8c-118.7-245.1-178.1-417.4-306.4-888.5c-158.9-589.7-220.2-691.2-580.2-945.9c-331.3-233.6-258.5-436.6,187.6-520.8c620.4-120.6,1838.2-149.3,2439.4-59.3c335.1,51.7,616.6,135.9,867.4,262.3c279.5,141.7,440.4,268.1,857.8,677.8c608.9,595.5,608.9,595.5,1627.5,1076.1c549.5,260.4,915.3,564.9,1321.2,1106.7c203,270,356.1,547.6,501.7,898c220.2,534.2,233.6,557.2,652.9,1020.6c555.3,614.6,857.8,1079.9,1014.8,1566.3c180,553.4,162.8,1415-45.9,2226.9C9600.1,4732.6,9454.6,4935.6,9268.8,4870.5z M9366.5,4378.4c149.3-448.1,220.2-915.3,220.2-1451.4c1.9-541.9-42.1-758.3-237.4-1158.4c-166.6-342.7-367.6-626.1-767.8-1072.3C8100.8,156.3,8047.2,75.9,7827-443c-137.9-323.6-197.2-440.4-331.2-658.7c-233.6-379.1-566.8-735.3-882.7-947.8c-201-134-308.3-189.6-767.8-404c-610.8-281.5-834.8-438.5-1359.5-947.8c-517-499.7-762.1-672.1-1154.6-804.2c-360-120.6-1020.6-176.2-1736.7-143.6c-402.1,17.2-882.7,61.3-1001.4,91.9l-53.6,13.4L662-4142.3c262.3,212.5,360,398.3,540,1026.3c143.6,503.6,225.9,725.7,352.3,938.2c225.9,384.9,574.4,628,1294.4,899.9c593.6,225.9,965,448,1164.2,693.1c57.4,70.8,164.7,258.5,285.3,505.5c222.1,453.8,315.9,605.1,488.3,777.4c193.4,193.4,363.8,300.6,838.7,534.2c490.2,239.3,656.8,352.3,804.2,549.5c114.9,155.1,248.9,432.7,373.4,781.2c220.2,614.6,398.3,892.3,718,1120.1c229.8,162.8,386.8,222.1,765.9,287.2c149.3,24.9,306.4,59.4,350.4,74.7c124.5,44.1,281.5,157,478.7,340.8c97.7,93.8,180,168.5,185.7,168.5C9305.2,4554.5,9333.9,4474.1,9366.5,4378.4z"/><path d="M8169.8,3576.1c-283.4-47.9-509.3-174.2-754.4-419.3C7254.5,2997.8,7220,2950,7132,2773.8c-55.5-111.1-113-252.8-130.2-315.9c-47.9-174.2-57.4-543.8-19.1-706.5c143.6-607,670.2-890.4,1261.8-675.9c203,74.7,335.1,162.8,530.4,358.1c147.4,147.4,199.2,214.5,271.9,354.2c134,260.4,170.4,398.3,181.9,679.7c7.6,180,1.9,271.9-21.1,371.5c-82.3,344.7-281.5,589.8-566.8,695.1C8514.4,3581.8,8303.8,3601,8169.8,3576.1z M8504.9,3262.1c199.1-68.9,352.3-239.3,415.5-457.6c23-86.2,28.7-160.8,23-306.4c-17.2-321.7-149.3-616.6-392.5-875c-208.7-222.1-417.4-323.6-656.8-323.6c-149.4,0-252.8,32.6-375.3,114.9c-335.1,231.7-369.6,817.6-72.8,1305.9c90,147.4,287.2,358,409.8,436.6C8054.9,3283.1,8321,3327.2,8504.9,3262.1z"/><path d="M6027.1,780.5c-325.5-47.9-633.8-204.9-898-455.7C4964.5,165.9,4849.6,7,4755.8-197.9c-189.6-409.7-204.9-861.6-36.4-1202.5c76.6-157,270-354.2,421.2-427c668.3-321.7,1583.5,78.5,1958.8,857.8c111.1,227.9,143.6,358.1,157,614.6c19.2,373.4-70.8,641.4-291,861.6C6731.8,738.4,6402.4,834.2,6027.1,780.5z M6366.1,493.3c237.4-49.8,446.1-216.4,547.6-432.7c67-145.5,82.3-428.9,32.5-618.5c-97.6-382.9-423.2-777.4-798.5-965c-201-103.4-337-134-541.9-122.5c-283.4,15.3-517,168.5-643.4,427c-105.3,212.5-99.6,517,13.4,796.6c174.2,428.9,570.6,788.9,991.8,898C6126.7,518.2,6226.3,522,6366.1,493.3z"/><path d="M2978.9-1503.8c-543.8-103.4-999.5-444.2-1231.2-921c-107.2-218.3-139.8-377.2-130.2-624.2c7.7-185.7,15.3-216.4,78.5-350.4c172.3-361.9,528.5-555.3,1018.7-553.3c285.3,1.9,461.5,44,727.6,176.2c857.8,425.1,1185.2,1478.2,620.4,2000.9c-132.1,122.5-235.5,180-428.9,239.3C3461.4-1482.7,3168.4-1467.4,2978.9-1503.8z M3591.6-1821.6c210.6-80.4,379.1-260.4,436.6-469.1c11.5-42.1,21.1-134,21.1-204.9c-1.9-524.6-566.8-1066.5-1217.8-1168c-373.4-57.4-737.2,116.8-877,419.3c-61.3,132.1-61.3,448,0,595.5c166.6,400.2,603.1,752.5,1064.6,857.8C3183.7-1754.6,3449.9-1768,3591.6-1821.6z"/></g></g>
</svg>