<?xml version="1.0" encoding="UTF-8" standalone="no"?>
<!-- Created with Inkscape (http://www.inkscape.org/) -->

<svg
   xmlns:dc="http://purl.org/dc/elements/1.1/"
   xmlns:cc="http://creativecommons.org/ns#"
   xmlns:rdf="http://www.w3.org/1999/02/22-rdf-syntax-ns#"
   xmlns:svg="http://www.w3.org/2000/svg"
   xmlns="http://www.w3.org/2000/svg"
   xmlns:sodipodi="http://sodipodi.sourceforge.net/DTD/sodipodi-0.dtd"
   xmlns:inkscape="http://www.inkscape.org/namespaces/inkscape"
   version="1.1"
   id="svg2"
   xml:space="preserve"
   width="336"
   height="192"
   viewBox="0 0 336 192"
   sodipodi:docname="portada.svg"
   inkscape:version="0.92.4 5da689c313, 2019-01-14"><metadata
     id="metadata8"><rdf:RDF><cc:Work
         rdf:about=""><dc:format>image/svg+xml</dc:format><dc:type
           rdf:resource="http://purl.org/dc/dcmitype/StillImage" /><dc:title></dc:title></cc:Work></rdf:RDF></metadata><defs
     id="defs6"><clipPath
       clipPathUnits="userSpaceOnUse"
       id="clipPath42"><path
         d="M 0,144 H 252 V 0 H 0 Z"
         id="path40"
         inkscape:connector-curvature="0" /></clipPath></defs><sodipodi:namedview
     pagecolor="#ffffff"
     bordercolor="#666666"
     borderopacity="1"
     objecttolerance="10"
     gridtolerance="10"
     guidetolerance="10"
     inkscape:pageopacity="0"
     inkscape:pageshadow="2"
     inkscape:window-width="1918"
     inkscape:window-height="1054"
     id="namedview4"
     showgrid="false"
     inkscape:zoom="2.97995"
     inkscape:cx="145.3981"
     inkscape:cy="103.0774"
     inkscape:window-x="0"
     inkscape:window-y="24"
     inkscape:window-maximized="0"
     inkscape:current-layer="g10" /><g
     id="g10"
     inkscape:groupmode="layer"
     inkscape:label="Product Label"
     transform="matrix(1.3333333,0,0,-1.3333333,0,192)"><path
       d="M 0,0 H 252 V 144 H 0 Z"
       style="fill:#ffffff;fill-opacity:1;fill-rule:nonzero;stroke:none"
       id="path12"
       inkscape:connector-curvature="0" /><path
       d="M 0,0 H 252 V 144 H 0 Z"
       style="fill:#f7f4c8;fill-opacity:1;fill-rule:nonzero;stroke:none"
       id="path14"
       inkscape:connector-curvature="0" /><path
       d="M 0,0 H 0.364 V 144 H 0 Z"
       style="fill:#f3e8b9;fill-opacity:1;fill-rule:nonzero;stroke:none"
       id="path16"
       inkscape:connector-curvature="0" /><path
       d="M 14.767,0 H 29.972 V 144 H 14.767 Z"
       style="fill:#f3e8b9;fill-opacity:1;fill-rule:nonzero;stroke:none"
       id="path18"
       inkscape:connector-curvature="0" /><path
       d="M 44.376,0 H 59.581 V 144 H 44.376 Z"
       style="fill:#f3e8b9;fill-opacity:1;fill-rule:nonzero;stroke:none"
       id="path20"
       inkscape:connector-curvature="0" /><path
       d="M 73.984,0 H 89.19 V 144 H 73.984 Z"
       style="fill:#f3e8b9;fill-opacity:1;fill-rule:nonzero;stroke:none"
       id="path22"
       inkscape:connector-curvature="0" /><path
       d="m 103.594,0 h 15.205 v 144 h -15.205 z"
       style="fill:#f3e8b9;fill-opacity:1;fill-rule:nonzero;stroke:none"
       id="path24"
       inkscape:connector-curvature="0" /><path
       d="m 133.202,0 h 15.206 v 144 h -15.206 z"
       style="fill:#f3e8b9;fill-opacity:1;fill-rule:nonzero;stroke:none"
       id="path26"
       inkscape:connector-curvature="0" /><path
       d="m 162.811,0 h 15.205 v 144 h -15.205 z"
       style="fill:#f3e8b9;fill-opacity:1;fill-rule:nonzero;stroke:none"
       id="path28"
       inkscape:connector-curvature="0" /><path
       d="m 192.42,0 h 15.204 V 144 H 192.42 Z"
       style="fill:#f3e8b9;fill-opacity:1;fill-rule:nonzero;stroke:none"
       id="path30"
       inkscape:connector-curvature="0" /><path
       d="m 222.028,0 h 15.206 v 144 h -15.206 z"
       style="fill:#f3e8b9;fill-opacity:1;fill-rule:nonzero;stroke:none"
       id="path32"
       inkscape:connector-curvature="0" /><path
       d="M 251.635,0 H 252 v 144 h -0.365 z"
       style="fill:#f3e8b9;fill-opacity:1;fill-rule:nonzero;stroke:none"
       id="path34"
       inkscape:connector-curvature="0" /><g
       id="g36"><g
         id="g38"
         clip-path="url(#clipPath42)"><g
           id="g44"
           transform="translate(126,23.0693)"><path
             d="m 0,0 c 27.023,0 48.931,21.907 48.931,48.931 0,27.023 -21.908,48.93 -48.931,48.93 -27.024,0 -48.931,-21.907 -48.931,-48.93 C -48.931,21.907 -27.024,0 0,0"
             style="fill:#ffffff;fill-opacity:1;fill-rule:nonzero;stroke:none"
             id="path46"
             inkscape:connector-curvature="0" /></g><g
           id="g48"
           transform="translate(119.6162,24.5059)"><path
             d="m 0,0 c 0.971,0 1.963,-0.383 2.552,-1.098 0.394,-0.443 1.068,-0.73 1.797,-0.758 0.73,-0.033 1.406,0.194 1.843,0.613 1.095,1.115 3.238,1.202 4.412,0.178 0.46,-0.375 1.173,-0.547 1.897,-0.456 0.73,0.089 1.358,0.42 1.721,0.907 0.89,1.276 2.992,1.714 4.319,0.896 0.522,-0.297 1.233,-0.348 1.938,-0.138 0.709,0.21 1.276,0.641 1.554,1.183 0.661,1.402 2.659,2.185 4.112,1.599 0.553,-0.204 1.28,-0.137 1.935,0.184 0.656,0.321 1.155,0.854 1.336,1.425 0.424,1.488 2.267,2.589 3.79,2.257 0.586,-0.111 1.276,0.07 1.876,0.498 0.603,0.43 0.998,1.023 1.087,1.629 0.172,1.544 1.818,2.943 3.369,2.848 0.586,0.001 1.249,0.28 1.772,0.801 0.522,0.523 0.814,1.172 0.801,1.782 -0.085,1.549 1.304,3.187 2.858,3.361 0.595,0.087 1.189,0.482 1.619,1.085 0.429,0.6 0.608,1.286 0.496,1.883 -0.33,1.516 0.77,3.359 2.268,3.785 0.563,0.179 1.095,0.679 1.416,1.334 0.321,0.655 0.388,1.382 0.181,1.942 -0.581,1.444 0.2,3.444 1.611,4.109 0.533,0.274 0.964,0.839 1.174,1.547 0.211,0.708 0.159,1.418 -0.143,1.949 -0.813,1.319 -0.374,3.421 0.907,4.317 0.481,0.359 0.812,0.984 0.902,1.715 0.091,0.724 -0.082,1.436 -0.462,1.904 -1.019,1.169 -0.932,3.314 0.186,4.408 0.416,0.431 0.64,1.104 0.611,1.841 -0.029,0.729 -0.315,1.402 -0.766,1.802 -1.196,0.986 -1.458,3.117 -0.533,4.379 0.338,0.493 0.45,1.192 0.3,1.914 -0.148,0.714 -0.542,1.333 -1.052,1.653 -1.344,0.778 -1.955,2.836 -1.251,4.231 0.252,0.547 0.245,1.261 -0.026,1.95 -0.268,0.686 -0.745,1.212 -1.306,1.443 -1.45,0.548 -2.394,2.476 -1.935,3.964 0.157,0.571 0.028,1.291 -0.347,1.918 -0.375,0.626 -0.945,1.077 -1.528,1.209 -1.526,0.3 -2.775,2.047 -2.562,3.593 0.062,0.596 -0.175,1.266 -0.652,1.829 -0.477,0.564 -1.1,0.909 -1.711,0.947 -1.553,0.044 -3.071,1.562 -3.115,3.124 -0.038,0.6 -0.383,1.223 -0.946,1.701 -0.564,0.477 -1.233,0.716 -1.839,0.651 -1.542,-0.211 -3.283,1.037 -3.585,2.571 -0.13,0.575 -0.581,1.146 -1.206,1.52 -0.628,0.376 -1.348,0.505 -1.927,0.344 -1.482,-0.456 -3.408,0.489 -3.96,1.945 -0.227,0.554 -0.754,1.031 -1.439,1.3 -0.68,0.266 -1.412,0.274 -1.959,0.02 -1.386,-0.7 -3.444,-0.088 -4.227,1.264 -0.315,0.503 -0.934,0.896 -1.648,1.044 -0.722,0.15 -1.421,0.038 -1.921,-0.305 -1.255,-0.92 -3.386,-0.658 -4.379,0.545 C 9.816,96.537 9.159,96.816 8.42,96.845 7.683,96.873 7.01,96.65 6.572,96.229 5.484,95.116 3.339,95.029 2.164,96.054 1.703,96.428 0.991,96.602 0.267,96.511 -0.464,96.42 -1.091,96.089 -1.454,95.602 c -0.891,-1.275 -2.993,-1.713 -4.32,-0.895 -0.521,0.296 -1.231,0.349 -1.939,0.138 -0.708,-0.211 -1.274,-0.642 -1.553,-1.184 -0.661,-1.402 -2.66,-2.184 -4.111,-1.598 -0.554,0.204 -1.28,0.136 -1.936,-0.185 -0.656,-0.321 -1.155,-0.854 -1.336,-1.424 -0.424,-1.49 -2.268,-2.59 -3.789,-2.258 -0.59,0.111 -1.277,-0.07 -1.876,-0.498 -0.603,-0.429 -0.998,-1.023 -1.087,-1.629 -0.172,-1.544 -1.805,-2.935 -3.369,-2.847 -0.597,0.008 -1.25,-0.281 -1.772,-0.803 -0.522,-0.522 -0.814,-1.17 -0.801,-1.78 0.085,-1.55 -1.304,-3.188 -2.858,-3.361 -0.596,-0.087 -1.19,-0.484 -1.62,-1.086 -0.428,-0.6 -0.608,-1.286 -0.496,-1.883 0.331,-1.516 -0.77,-3.358 -2.266,-3.785 -0.563,-0.178 -1.096,-0.677 -1.417,-1.334 -0.321,-0.655 -0.389,-1.381 -0.181,-1.942 0.581,-1.443 -0.2,-3.443 -1.611,-4.108 -0.533,-0.275 -0.964,-0.841 -1.175,-1.548 -0.21,-0.708 -0.158,-1.419 0.144,-1.948 0.813,-1.319 0.374,-3.421 -0.908,-4.317 -0.48,-0.358 -0.811,-0.985 -0.902,-1.716 -0.091,-0.724 0.083,-1.436 0.463,-1.904 1.019,-1.168 0.932,-3.314 -0.186,-4.407 -0.416,-0.432 -0.641,-1.106 -0.611,-1.842 0.029,-0.729 0.315,-1.402 0.766,-1.802 1.195,-0.986 1.458,-3.116 0.534,-4.378 -0.339,-0.493 -0.451,-1.193 -0.301,-1.914 0.148,-0.716 0.541,-1.333 1.053,-1.654 1.342,-0.778 1.954,-2.836 1.25,-4.231 -0.252,-0.546 -0.245,-1.26 0.025,-1.95 0.269,-0.685 0.745,-1.212 1.307,-1.443 1.449,-0.548 2.393,-2.477 1.935,-3.964 -0.157,-0.57 -0.029,-1.29 0.347,-1.918 0.374,-0.625 0.945,-1.077 1.527,-1.209 1.527,-0.301 2.776,-2.047 2.563,-3.592 -0.062,-0.596 0.175,-1.266 0.652,-1.83 0.477,-0.563 1.101,-0.908 1.71,-0.946 1.553,-0.044 3.071,-1.563 3.116,-3.124 0.037,-0.601 0.382,-1.224 0.946,-1.702 0.563,-0.477 1.232,-0.714 1.839,-0.651 1.538,0.209 3.283,-1.037 3.584,-2.571 0.131,-0.574 0.582,-1.145 1.207,-1.519 0.628,-0.376 1.347,-0.505 1.927,-0.345 1.479,0.456 3.408,-0.486 3.959,-1.944 0.228,-0.555 0.754,-1.031 1.439,-1.299 0.679,-0.267 1.412,-0.276 1.96,-0.022 1.386,0.699 3.443,0.088 4.226,-1.263 0.316,-0.503 0.934,-0.897 1.649,-1.045 0.721,-0.15 1.421,-0.038 1.921,0.306 C -1.316,-0.179 -0.663,0 0,0 m 4.475,-2.403 c -0.049,0 -0.099,10e-4 -0.148,0.003 -0.887,0.035 -1.685,0.38 -2.188,0.949 -0.816,0.987 -2.62,1.211 -3.65,0.456 -0.628,-0.433 -1.48,-0.576 -2.346,-0.396 -0.87,0.18 -1.601,0.654 -2.005,1.297 -0.643,1.111 -2.387,1.629 -3.523,1.054 -0.699,-0.323 -1.569,-0.319 -2.396,0.005 -0.822,0.322 -1.459,0.908 -1.746,1.605 -0.453,1.197 -2.088,1.995 -3.301,1.622 -0.737,-0.204 -1.594,-0.057 -2.359,0.401 -0.761,0.456 -1.292,1.138 -1.459,1.873 -0.248,1.261 -1.725,2.318 -2.987,2.144 -0.762,-0.08 -1.58,0.204 -2.255,0.776 -0.676,0.573 -1.091,1.336 -1.139,2.093 -0.036,1.283 -1.322,2.569 -2.596,2.604 -0.766,0.048 -1.528,0.463 -2.101,1.139 -0.572,0.675 -0.856,1.494 -0.777,2.247 0.175,1.269 -0.883,2.748 -2.136,2.994 -0.742,0.168 -1.426,0.7 -1.882,1.462 -0.456,0.764 -0.603,1.62 -0.401,2.349 0.376,1.223 -0.424,2.856 -1.613,3.306 -0.705,0.291 -1.29,0.928 -1.613,1.751 -0.324,0.826 -0.327,1.696 -0.008,2.386 0.578,1.145 0.06,2.888 -1.042,3.527 -0.652,0.409 -1.125,1.14 -1.305,2.01 -0.179,0.865 -0.037,1.718 0.39,2.339 0.759,1.036 0.537,2.841 -0.444,3.65 -0.575,0.509 -0.921,1.307 -0.956,2.195 -0.035,0.882 0.245,1.701 0.768,2.245 0.918,0.898 0.993,2.714 0.157,3.673 -0.485,0.598 -0.697,1.441 -0.587,2.323 0.11,0.877 0.519,1.638 1.123,2.089 1.053,0.736 1.425,2.516 0.758,3.598 -0.379,0.667 -0.449,1.531 -0.196,2.381 0.252,0.849 0.783,1.535 1.456,1.881 1.159,0.546 1.82,2.24 1.343,3.424 -0.264,0.716 -0.19,1.579 0.2,2.378 0.391,0.799 1.029,1.387 1.749,1.615 1.229,0.351 2.161,1.913 1.89,3.156 -0.141,0.749 0.073,1.588 0.586,2.307 0.516,0.722 1.242,1.2 1.994,1.31 1.277,0.142 2.453,1.529 2.383,2.801 -0.016,0.766 0.334,1.559 0.96,2.185 0.627,0.626 1.42,0.967 2.177,0.961 1.284,-0.075 2.668,1.107 2.81,2.374 0.11,0.76 0.587,1.487 1.309,2.002 0.72,0.514 1.559,0.729 2.301,0.588 1.253,-0.272 2.812,0.66 3.16,1.881 0.231,0.728 0.819,1.366 1.618,1.757 0.799,0.39 1.663,0.465 2.371,0.203 1.19,-0.48 2.885,0.181 3.427,1.331 0.351,0.682 1.036,1.213 1.885,1.465 0.85,0.253 1.714,0.183 2.372,-0.192 1.091,-0.671 2.871,-0.299 3.602,0.746 0.456,0.612 1.217,1.022 2.095,1.131 0.88,0.11 1.724,-0.101 2.314,-0.581 0.966,-0.842 2.783,-0.767 3.675,0.145 0.549,0.529 1.368,0.81 2.252,0.774 0.887,-0.035 1.685,-0.381 2.188,-0.95 0.815,-0.988 2.62,-1.209 3.649,-0.455 0.629,0.432 1.483,0.574 2.347,0.395 0.87,-0.18 1.601,-0.652 2.004,-1.296 0.643,-1.111 2.388,-1.629 3.523,-1.055 0.699,0.323 1.568,0.321 2.395,-0.004 0.823,-0.323 1.461,-0.908 1.748,-1.606 0.453,-1.196 2.085,-1.996 3.301,-1.622 0.738,0.203 1.594,0.057 2.358,-0.4 0.762,-0.456 1.293,-1.139 1.459,-1.874 0.248,-1.259 1.726,-2.316 2.987,-2.144 0.766,0.08 1.581,-0.204 2.256,-0.776 0.676,-0.573 1.091,-1.335 1.138,-2.092 0.037,-1.283 1.322,-2.569 2.597,-2.605 0.766,-0.047 1.529,-0.462 2.101,-1.139 0.572,-0.675 0.855,-1.494 0.778,-2.245 -0.176,-1.271 0.882,-2.75 2.134,-2.996 0.742,-0.168 1.426,-0.7 1.882,-1.461 0.457,-0.764 0.604,-1.621 0.402,-2.35 -0.376,-1.222 0.423,-2.856 1.613,-3.306 0.705,-0.29 1.29,-0.928 1.613,-1.751 0.323,-0.826 0.327,-1.696 0.009,-2.385 -0.579,-1.146 -0.061,-2.889 1.041,-3.528 0.652,-0.409 1.125,-1.14 1.305,-2.009 0.179,-0.866 0.037,-1.718 -0.39,-2.339 -0.76,-1.037 -0.537,-2.842 0.443,-3.651 0.575,-0.509 0.921,-1.307 0.956,-2.194 0.036,-0.883 -0.244,-1.702 -0.767,-2.245 -0.918,-0.899 -0.993,-2.715 -0.157,-3.674 0.485,-0.598 0.697,-1.442 0.586,-2.322 -0.109,-0.877 -0.518,-1.639 -1.124,-2.089 -1.051,-0.737 -1.423,-2.517 -0.756,-3.599 0.378,-0.666 0.449,-1.531 0.196,-2.381 -0.252,-0.848 -0.783,-1.534 -1.456,-1.881 -1.159,-0.546 -1.821,-2.24 -1.343,-3.423 0.265,-0.716 0.19,-1.58 -0.2,-2.377 -0.391,-0.8 -1.028,-1.389 -1.749,-1.618 -1.229,-0.349 -2.161,-1.911 -1.891,-3.155 0.142,-0.749 -0.072,-1.588 -0.586,-2.307 -0.515,-0.722 -1.242,-1.2 -1.993,-1.309 -1.276,-0.143 -2.452,-1.529 -2.384,-2.801 0.017,-0.766 -0.334,-1.558 -0.96,-2.185 -0.626,-0.627 -1.412,-0.98 -2.176,-0.961 C 38.232,11.292 36.85,10.116 36.708,8.85 36.598,8.089 36.12,7.362 35.398,6.847 34.679,6.333 33.842,6.119 33.098,6.259 31.849,6.532 30.285,5.6 29.937,4.378 29.707,3.65 29.118,3.013 28.319,2.621 27.521,2.23 26.657,2.157 25.949,2.419 24.758,2.896 23.063,2.236 22.521,1.087 c -0.35,-0.682 -1.036,-1.213 -1.885,-1.465 -0.85,-0.252 -1.714,-0.182 -2.372,0.192 -1.09,0.671 -2.87,0.3 -3.602,-0.747 -0.455,-0.61 -1.217,-1.02 -2.094,-1.13 -0.88,-0.109 -1.724,0.102 -2.314,0.582 C 9.287,-0.64 7.47,-0.715 6.578,-1.626 L 6.572,-1.633 C 6.06,-2.126 5.301,-2.403 4.475,-2.403"
             style="fill:#f1f0c2;fill-opacity:1;fill-rule:nonzero;stroke:none"
             id="path50"
             inkscape:connector-curvature="0" /></g><g
           id="g52"
           transform="translate(124.1968,132.0322)"><path
             d="M 0,0 C -0.019,0.021 -0.058,-0.007 -0.04,-0.03 1.18,-1.613 1.062,-3.584 1.096,-5.469 1.097,-5.514 1.168,-5.527 1.177,-5.48 1.525,-3.513 1.403,-1.515 0,0"
             style="fill:#8c6c6c;fill-opacity:1;fill-rule:nonzero;stroke:none"
             id="path54"
             inkscape:connector-curvature="0" /></g><g
           id="g56"
           transform="translate(125.8022,104.29)"><path
             d="M 0,0 C -0.038,0 -0.038,-0.059 0,-0.059 0.038,-0.059 0.038,0 0,0"
             style="fill:#8c6c6c;fill-opacity:1;fill-rule:nonzero;stroke:none"
             id="path58"
             inkscape:connector-curvature="0" /></g><g
           id="g60"
           transform="translate(141.2939,119.1938)"><path
             d="m 0,0 c -0.004,-0.177 -0.004,-0.376 -0.004,-0.582 -0.059,-0.405 -0.102,-0.812 -0.108,-1.224 -0.001,-0.042 0.022,-0.071 0.05,-0.093 -0.065,-0.579 -0.209,-1.135 -0.542,-1.538 -0.048,0.116 -0.167,0.165 -0.287,0.152 -0.431,0.878 -0.999,1.669 -1.755,2.28 -2.152,1.734 -5.249,1.998 -7.92,1.387 -0.1,0.024 -0.194,0.054 -0.279,0.091 -0.279,0.343 -0.339,0.69 -0.179,1.039 0.002,0.002 0.003,0.004 0.003,0.007 0.009,0.02 0.015,0.04 0.026,0.06 0.046,0.116 -0.004,0.205 -0.085,0.256 0.003,0.005 0.005,0.009 0.009,0.014 1.283,1.78 3.678,1.758 5.476,0.849 0.033,-0.016 0.056,0.027 0.028,0.048 -1.232,0.883 -2.709,1.126 -4.168,0.664 -0.911,-0.288 -1.396,-0.815 -1.815,-1.431 -1.088,1.34 -1.841,2.589 -1.924,4.373 -0.072,1.535 0.431,2.937 0.608,4.435 0.019,0.166 0.026,0.324 0.027,0.48 0.723,0.835 1.431,1.607 2.609,1.845 1.072,0.216 2.207,-0.008 3.235,-0.341 1.866,-0.604 3.541,-1.8 4.772,-3.323 1.424,-1.761 2.067,-3.83 2.206,-6.073 C 0.053,2.254 0.028,1.122 0,0 m -7.493,-0.189 c 1.251,-0.048 2.475,-0.278 3.636,-0.971 0.813,-0.485 1.43,-1.148 1.9,-1.912 -0.399,0.509 -0.856,0.951 -1.373,1.293 -1.151,0.762 -2.632,1.336 -4.163,1.59 m 5.551,-12.547 c -0.851,-1.273 -2.472,-2.479 -4.219,-3.124 -1.35,-0.226 -2.731,-0.039 -4.092,0.361 -0.185,0.194 -0.338,0.406 -0.437,0.646 -0.044,0.169 -0.081,0.342 -0.11,0.52 0.879,2.882 0.108,6.496 -1.374,9.345 -0.055,0.638 -0.351,1.225 -0.39,1.876 -0.002,0.026 10e-4,0.05 10e-4,0.076 0.939,-0.887 1.659,-1.963 2.254,-3.133 0.026,-0.051 0.099,-0.015 0.088,0.037 -0.305,1.408 -1.2,2.538 -2.341,3.344 0.005,0.157 0.016,0.312 0.036,0.466 1.672,-1.225 2.88,-2.939 3.599,-4.905 0.012,-0.03 0.057,-0.019 0.049,0.014 -0.535,2.113 -1.861,3.811 -3.637,4.982 0.03,0.199 0.066,0.398 0.11,0.595 1.426,-0.757 2.482,-1.836 3.499,-3.279 0.031,-0.043 0.093,-0.006 0.071,0.042 -0.613,1.387 -1.804,2.818 -3.263,3.499 0.063,0.049 0.125,0.099 0.188,0.148 1.193,-0.072 2.259,-0.244 3.333,-1.008 1.053,-0.748 1.903,-1.673 2.713,-2.669 0.031,-0.037 0.086,0.01 0.065,0.05 -1.109,2.111 -2.865,3.606 -5.041,3.93 1.612,0.219 3.254,0.176 4.802,-0.285 1.376,-0.524 2.582,-1.42 3.433,-2.695 1.236,-1.854 1.412,-3.985 1.373,-6.149 -0.001,-0.069 0.107,-0.086 0.121,-0.016 0.549,2.623 -0.353,5.6 -2.204,7.493 1.836,-1.456 2.191,-3.592 2.478,-5.779 -0.074,-1.561 -0.242,-3.09 -1.105,-4.382 m -14.703,-6.589 c -1.369,-0.506 -2.798,-0.603 -4.166,-0.346 -0.613,0.204 -1.216,0.495 -1.799,0.885 -1.587,1.061 -3.087,2.605 -4.182,4.164 -0.447,0.637 -0.84,1.334 -1.078,2.08 -0.113,0.771 -0.02,1.502 0.405,2.106 1.616,0.009 3.277,-0.044 4.854,0.323 1.682,0.393 3.262,1.188 4.69,2.146 1.41,0.946 3.097,2.217 3.898,3.792 0.381,-3.472 1.005,-7.849 -1.398,-10.634 -0.031,-0.036 0.019,-0.087 0.051,-0.052 1.254,1.319 1.615,3.016 1.836,4.781 0.2,1.597 0.263,3.359 -0.014,5.011 1.61,-4.36 1.533,-9.387 -2.728,-12.26 -1.794,-1.21 -4.498,-1.964 -6.47,-0.73 -1.907,1.195 -4.046,4.093 -3.767,6.37 0.01,0.081 -0.133,0.101 -0.145,0.019 -0.327,-2.367 1.628,-4.948 3.412,-6.351 1.738,-1.368 4.15,-1.153 6.06,-0.271 5.028,2.32 6.319,9.052 3.574,13.598 -10e-4,0.002 -0.005,0 -0.007,0.002 -0.063,0.312 -0.142,0.619 -0.234,0.92 0.028,0.066 0.061,0.131 0.086,0.198 0.013,-0.02 0.027,-0.037 0.039,-0.054 0.999,-2.988 2.775,-5.57 2.465,-8.92 -0.284,-3.09 -2.501,-5.713 -5.382,-6.777 M -30.98,-3.054 c -0.617,3.088 1.026,7.583 4.661,7.695 0.279,-1.565 1.135,-3.077 2.276,-4.013 2.54,-2.087 6.245,-2.214 9.457,-2.364 -2.06,-2.574 -4.427,-4.914 -7.874,-5.427 -0.013,-0.002 -0.01,-0.024 0.003,-0.023 2.938,0.309 5.421,1.831 7.318,3.982 -1.319,-2.222 -3.173,-4.027 -5.737,-4.821 -1.603,-0.496 -3.332,-0.553 -4.968,-0.202 -2.014,0.432 -2.96,1.979 -3.673,3.779 -0.013,0.032 -0.065,0.02 -0.053,-0.014 0.511,-1.512 1.006,-3.064 2.566,-3.785 1.521,-0.702 3.432,-0.753 5.053,-0.476 3.361,0.575 6.395,2.951 7.404,6.235 0.138,0.178 0.274,0.361 0.404,0.546 -0.134,-1.484 -0.645,-2.67 -1.885,-3.764 -1.119,-0.988 -2.378,-1.868 -3.697,-2.57 -1.36,-0.724 -2.857,-1.26 -4.401,-1.39 -0.192,-0.016 -0.383,-0.022 -0.574,-0.025 -0.05,0.039 -0.109,0.069 -0.189,0.072 -3.552,0.138 -5.462,3.417 -6.091,6.565 M -25.25,8.3 c 0.942,1.6 1.964,2.977 3.657,4.001 1.26,0.762 3.089,1.462 4.764,1.451 0.367,-0.077 0.669,-0.193 0.925,-0.338 0.8,-0.774 1.079,-1.94 1.198,-3.15 -0.107,-2.223 -0.868,-4.946 0.533,-6.536 0.037,-0.094 0.065,-0.189 0.108,-0.283 0.288,-0.629 0.627,-1.165 0.807,-1.732 -1.442,1.105 -2.871,2.269 -2.79,4.312 0.002,0.042 -0.061,0.041 -0.064,0 -0.153,-2.097 1.238,-3.757 2.956,-4.796 0.002,-0.013 0.003,-0.027 0.004,-0.04 -0.036,-0.027 -0.071,-0.058 -0.086,-0.105 -1.261,0.276 -2.438,0.495 -3.507,1.448 -1.224,1.091 -1.844,2.661 -1.881,4.28 0,0.021 -0.029,0.021 -0.032,0 -0.204,-1.709 0.434,-3.324 1.69,-4.504 0.887,-0.833 2.26,-1.559 3.572,-1.659 -0.003,-0.016 -0.009,-0.031 -0.013,-0.047 -2.97,0.401 -5.259,1.713 -6.635,4.611 -0.015,0.031 -0.067,0.009 -0.055,-0.023 1.04,-2.648 3.583,-4.936 6.52,-4.965 -0.037,-0.051 -0.076,-0.102 -0.122,-0.153 -0.15,-0.025 -0.299,-0.051 -0.448,-0.068 -0.094,0.079 -0.26,0.078 -0.354,-0.034 -2.248,-0.141 -4.482,0.764 -5.934,2.675 -0.011,0.013 -0.035,0 -0.024,-0.015 1.019,-1.435 2.258,-2.437 3.994,-2.887 0.454,-0.118 1.016,-0.208 1.591,-0.23 -0.157,-0.169 -0.332,-0.318 -0.534,-0.421 -2.384,0.146 -4.848,0.296 -6.97,1.393 -1.472,0.761 -2.585,1.994 -3.068,3.59 -0.459,1.513 -0.109,2.784 0.198,4.225 m 10.546,2.77 c -0.126,0.791 -0.338,1.535 -0.877,2.126 0.613,-0.502 0.834,-1.251 0.877,-2.126 m -0.086,2.211 c 1.842,-0.991 0.985,-2.906 0.724,-4.488 -0.051,-0.301 -0.087,-0.604 -0.116,-0.907 -0.047,0.208 -0.094,0.417 -0.137,0.629 0.142,1.004 0.289,2.032 0.148,3.099 -0.116,0.877 -0.509,1.479 -1.061,1.865 0.151,-0.057 0.299,-0.121 0.442,-0.198 M 1.261,5.496 c -0.715,2.744 -2.417,5.388 -5.071,6.436 -1.141,0.818 -2.435,1.422 -3.81,1.723 -2.228,0.486 -4.003,-0.014 -5.301,-1.601 -0.308,1.38 -1.472,2.213 -3.097,2.382 -3.592,0.371 -7.964,-1.942 -9.553,-5.355 -0.27,-0.423 -0.474,-0.903 -0.655,-1.336 -0.314,-0.75 -0.711,-1.712 -0.611,-2.559 -1.323,-0.058 -2.536,-1.072 -3.342,-2.081 -0.185,-0.23 -0.348,-0.472 -0.501,-0.719 -0.012,-0.003 -0.024,-0.011 -0.031,-0.026 -0.022,-0.042 -0.037,-0.087 -0.059,-0.129 -0.005,-0.01 -0.01,-0.021 -0.015,-0.03 -1.858,-1.701 -1.778,-4.853 -1.091,-7.072 0.5,-1.614 1.858,-3.821 3.608,-4.746 -0.95,-0.55 -0.368,-2.763 0.03,-3.78 0.351,-1.342 1.069,-2.672 1.637,-3.419 1.346,-1.77 3.306,-3.074 5.455,-3.567 1.527,-0.572 3.148,-0.608 4.793,0.073 1.755,0.727 3.915,1.895 4.936,3.633 1.058,-1.062 3.438,-0.959 4.765,-0.755 1.695,0.261 3.35,1.036 4.552,2.275 0.798,0.822 1.308,1.772 1.625,2.793 0.479,0.989 0.751,2.111 0.747,3.325 -0.001,0.909 -0.084,1.883 -0.255,2.85 0.08,0.716 0.198,1.426 0.401,2.117 0.022,0.075 0.018,0.14 0.002,0.198 0.127,0.266 0.263,0.581 0.253,0.879 1.346,2.496 1.262,5.906 0.588,8.491"
             style="fill:#8c6c6c;fill-opacity:1;fill-rule:nonzero;stroke:none"
             id="path62"
             inkscape:connector-curvature="0" /></g><g
           id="g64"
           transform="translate(130.4824,130.8608)"><path
             d="m 0,0 c -0.052,-0.014 -0.029,-0.088 0.021,-0.08 2.978,0.493 5.791,-0.915 7.446,-3.401 1.649,-2.482 1.586,-5.126 1.838,-7.957 0.007,-0.079 0.132,-0.111 0.148,-0.02 C 10.494,-6.086 6.336,1.666 0,0"
             style="fill:#8c6c6c;fill-opacity:1;fill-rule:nonzero;stroke:none"
             id="path66"
             inkscape:connector-curvature="0" /></g><g
           id="g68"
           transform="translate(137.8379,119.6191)"><path
             d="m 0,0 c -1.623,1.958 -5.163,2.519 -7.375,1.349 -0.062,-0.034 -0.018,-0.122 0.046,-0.11 1.35,0.267 2.614,0.476 3.984,0.185 1.234,-0.262 2.196,-0.91 3.259,-1.536 C -0.013,-0.155 0.05,-0.06 0,0"
             style="fill:#8c6c6c;fill-opacity:1;fill-rule:nonzero;stroke:none"
             id="path70"
             inkscape:connector-curvature="0" /></g><g
           id="g72"
           transform="translate(137.7979,129.1753)"><path
             d="M 0,0 C -0.051,0.045 -0.146,-0.016 -0.101,-0.078 1.202,-1.812 1.989,-3.495 2.336,-5.644 2.342,-5.681 2.398,-5.67 2.399,-5.635 2.45,-3.578 1.551,-1.363 0,0"
             style="fill:#8c6c6c;fill-opacity:1;fill-rule:nonzero;stroke:none"
             id="path74"
             inkscape:connector-curvature="0" /></g><g
           id="g76"
           transform="translate(128.5654,126.4565)"><path
             d="M 0,0 C 0.042,1.067 0.127,2.622 0.775,3.538 0.787,3.554 0.76,3.576 0.747,3.56 -0.009,2.622 -0.104,1.163 -0.165,0 -0.232,-1.258 -0.053,-2.581 0.824,-3.541 0.851,-3.57 0.896,-3.532 0.878,-3.499 0.261,-2.346 -0.052,-1.331 0,0"
             style="fill:#8c6c6c;fill-opacity:1;fill-rule:nonzero;stroke:none"
             id="path78"
             inkscape:connector-curvature="0" /></g><g
           id="g80"
           transform="translate(119.1528,117.7847)"><path
             d="m 0,0 c -2.096,0.714 -3.646,2.097 -4.455,4.179 -0.006,0.016 -0.03,0.01 -0.026,-0.008 0.433,-2.137 2.285,-3.956 4.473,-4.23 C 0.027,-0.063 0.03,-0.01 0,0"
             style="fill:#8c6c6c;fill-opacity:1;fill-rule:nonzero;stroke:none"
             id="path82"
             inkscape:connector-curvature="0" /></g><g
           id="g84"
           transform="translate(113.7383,123.002)"><path
             d="m 0,0 c -1.878,-1.416 -2.332,-3.909 -1.917,-6.123 0.004,-0.023 0.04,-0.017 0.041,0.006 0.06,2.264 0.273,4.342 1.935,6.041 C 0.095,-0.038 0.045,0.034 0,0"
             style="fill:#8c6c6c;fill-opacity:1;fill-rule:nonzero;stroke:none"
             id="path86"
             inkscape:connector-curvature="0" /></g><g
           id="g88"
           transform="translate(111.2983,121.3931)"><path
             d="m 0,0 c -0.416,-1.647 -0.568,-3.303 -0.451,-5 0.001,-0.014 0.023,-0.015 0.023,0 -0.014,1.683 0.136,3.339 0.459,4.992 C 0.035,0.012 0.005,0.02 0,0"
             style="fill:#8c6c6c;fill-opacity:1;fill-rule:nonzero;stroke:none"
             id="path90"
             inkscape:connector-curvature="0" /></g><g
           id="g92"
           transform="translate(123.5122,101.9888)"><path
             d="M 0,0 C -2.82,-1.399 -4.684,0.206 -6.662,2.122 -6.675,2.134 -6.699,2.118 -6.687,2.103 -5.24,0.099 -2.281,-2.29 0.078,-0.101 0.134,-0.049 0.062,0.031 0,0"
             style="fill:#8c6c6c;fill-opacity:1;fill-rule:nonzero;stroke:none"
             id="path94"
             inkscape:connector-curvature="0" /></g><g
           id="g96"
           transform="translate(138.9893,106.3408)"><path
             d="m 0,0 c -1.966,-2.001 -4.649,-2.648 -7.306,-1.75 -0.044,0.016 -0.073,-0.054 -0.031,-0.075 2.533,-1.247 5.711,-0.484 7.392,1.783 C 0.078,-0.01 0.027,0.027 0,0"
             style="fill:#8c6c6c;fill-opacity:1;fill-rule:nonzero;stroke:none"
             id="path98"
             inkscape:connector-curvature="0" /></g><g
           id="g100"
           transform="translate(136.5801,126.5879)"><path
             d="m 0,0 c -0.012,0.013 -0.031,-0.006 -0.02,-0.02 1.209,-1.247 1.806,-2.776 1.927,-4.495 10e-4,-0.018 0.028,-0.018 0.028,0 C 1.948,-2.793 1.21,-1.205 0,0"
             style="fill:#8c6c6c;fill-opacity:1;fill-rule:nonzero;stroke:none"
             id="path102"
             inkscape:connector-curvature="0" /></g><g
           id="g104"
           transform="translate(140.8867,122.3662)"><path
             d="m 0,0 c -0.002,0.021 -0.033,0.021 -0.032,0 0.093,-1.306 0.003,-2.612 0.08,-3.914 0.003,-0.039 0.055,-0.037 0.059,0 C 0.275,-2.635 0.125,-1.278 0,0"
             style="fill:#8c6c6c;fill-opacity:1;fill-rule:nonzero;stroke:none"
             id="path106"
             inkscape:connector-curvature="0" /></g><g
           id="g108"
           transform="translate(134.3437,117.9619)"><path
             d="M 0,0 C -0.063,0.018 -0.088,-0.077 -0.026,-0.097 1.523,-0.615 2.84,-1.635 3.683,-3.039 3.692,-3.054 3.715,-3.041 3.706,-3.025 2.927,-1.524 1.635,-0.445 0,0"
             style="fill:#8c6c6c;fill-opacity:1;fill-rule:nonzero;stroke:none"
             id="path110"
             inkscape:connector-curvature="0" /></g><g
           id="g112"
           transform="translate(131.0869,126.3521)"><path
             d="M 0,0 C -0.343,0 -0.343,-0.532 0,-0.532 0.343,-0.532 0.343,0 0,0"
             style="fill:#8c6c6c;fill-opacity:1;fill-rule:nonzero;stroke:none"
             id="path114"
             inkscape:connector-curvature="0" /></g><g
           id="g116"
           transform="translate(132.2822,127.5293)"><path
             d="m 0,0 -0.013,0.022 c -0.126,0.218 -0.466,0.172 -0.532,-0.07 -0.07,-0.255 0.206,-0.441 0.428,-0.329 0.007,0.004 0.013,0.007 0.021,0.011 C 0.033,-0.301 0.069,-0.119 0,0"
             style="fill:#8c6c6c;fill-opacity:1;fill-rule:nonzero;stroke:none"
             id="path118"
             inkscape:connector-curvature="0" /></g><g
           id="g120"
           transform="translate(132.751,125.7119)"><path
             d="m 0,0 c -0.069,0.001 -0.138,0.007 -0.206,0.019 -0.238,0.031 -0.297,-0.283 -0.177,-0.427 0.029,-0.036 0.058,-0.073 0.086,-0.11 0.146,-0.204 0.454,-0.238 0.594,0 C 0.434,-0.283 0.256,-0.013 0,0"
             style="fill:#8c6c6c;fill-opacity:1;fill-rule:nonzero;stroke:none"
             id="path122"
             inkscape:connector-curvature="0" /></g><g
           id="g124"
           transform="translate(133.5342,124.7085)"><path
             d="M 0,0 C -0.369,0 -0.37,-0.573 0,-0.573 0.368,-0.573 0.369,0 0,0"
             style="fill:#8c6c6c;fill-opacity:1;fill-rule:nonzero;stroke:none"
             id="path126"
             inkscape:connector-curvature="0" /></g><g
           id="g128"
           transform="translate(133.9502,127.0571)"><path
             d="M 0,0 C 0.005,0.053 -0.013,0.11 -0.065,0.163 -0.245,0.34 -0.324,0.667 -0.58,0.742 -0.647,0.762 -0.72,0.729 -0.756,0.67 c -0.187,-0.304 0.164,-0.637 0.385,-0.812 0.026,-0.021 0.054,-0.035 0.081,-0.043 -0.055,-0.17 0.033,-0.393 0.265,-0.393 0.366,0 0.373,0.55 0.025,0.578"
             style="fill:#8c6c6c;fill-opacity:1;fill-rule:nonzero;stroke:none"
             id="path130"
             inkscape:connector-curvature="0" /></g><g
           id="g132"
           transform="translate(131.4287,129.2056)"><path
             d="m 0,0 c -0.163,-0.05 -0.277,-0.075 -0.357,-0.233 -0.033,-0.064 -0.021,-0.157 0.05,-0.192 0.161,-0.079 0.248,-0.049 0.421,0.013 C 0.368,-0.319 0.267,0.082 0,0"
             style="fill:#8c6c6c;fill-opacity:1;fill-rule:nonzero;stroke:none"
             id="path134"
             inkscape:connector-curvature="0" /></g><g
           id="g136"
           transform="translate(130.0986,127.6401)"><path
             d="M 0,0 C -0.021,-0.011 -0.039,-0.022 -0.058,-0.034 -0.389,-0.225 0.066,-0.683 0.258,-0.35 0.27,-0.331 0.28,-0.311 0.292,-0.292 0.398,-0.107 0.185,0.107 0,0"
             style="fill:#8c6c6c;fill-opacity:1;fill-rule:nonzero;stroke:none"
             id="path138"
             inkscape:connector-curvature="0" /></g><g
           id="g140"
           transform="translate(129.8437,124.9111)"><path
             d="m 0,0 c -0.027,0.289 -0.423,0.29 -0.449,0 -0.004,-0.032 -0.007,-0.065 -0.01,-0.098 -0.01,-0.101 0.08,-0.199 0.172,-0.225 0.045,-0.013 0.08,-0.013 0.124,0 0.092,0.026 0.182,0.124 0.172,0.225 C 0.006,-0.065 0.003,-0.032 0,0"
             style="fill:#8c6c6c;fill-opacity:1;fill-rule:nonzero;stroke:none"
             id="path142"
             inkscape:connector-curvature="0" /></g><g
           id="g144"
           transform="translate(130.5449,123.2407)"><path
             d="m 0,0 c -0.046,0.033 -0.161,0.027 -0.187,0.06 -0.05,0.06 -0.148,-0.004 -0.127,-0.074 0.031,-0.103 0.035,-0.151 0.136,-0.202 0.068,-0.035 0.152,-0.019 0.192,0.05 0.007,0.011 0.013,0.022 0.02,0.034 C 0.062,-0.084 0.042,-0.03 0,0"
             style="fill:#8c6c6c;fill-opacity:1;fill-rule:nonzero;stroke:none"
             id="path146"
             inkscape:connector-curvature="0" /></g><g
           id="g148"
           transform="translate(133.8271,129.2603)"><path
             d="M 0,0 C -0.307,0 -0.308,-0.477 0,-0.477 0.308,-0.477 0.308,0 0,0"
             style="fill:#8c6c6c;fill-opacity:1;fill-rule:nonzero;stroke:none"
             id="path150"
             inkscape:connector-curvature="0" /></g><g
           id="g152"
           transform="translate(134.8252,127.7197)"><path
             d="m 0,0 c -0.101,0.204 -0.391,-0.083 -0.186,-0.185 0.062,-0.03 0.082,-0.04 0.147,-0.052 0.058,-0.01 0.101,0.033 0.091,0.091 C 0.04,-0.081 0.03,-0.061 0,0"
             style="fill:#8c6c6c;fill-opacity:1;fill-rule:nonzero;stroke:none"
             id="path154"
             inkscape:connector-curvature="0" /></g><g
           id="g156"
           transform="translate(135.3936,125.6406)"><path
             d="M 0,0 C -0.184,0 -0.184,-0.284 0,-0.284 0.183,-0.284 0.183,0 0,0"
             style="fill:#8c6c6c;fill-opacity:1;fill-rule:nonzero;stroke:none"
             id="path158"
             inkscape:connector-curvature="0" /></g><g
           id="g160"
           transform="translate(136.2988,124.4771)"><path
             d="M 0,0 C 0.013,-0.025 0.026,-0.05 0.039,-0.075 0.053,-0.1 0.094,-0.1 0.105,-0.075 0.12,-0.05 0.133,-0.025 0.146,0 0.229,0.159 -0.085,0.159 0,0"
             style="fill:#8c6c6c;fill-opacity:1;fill-rule:nonzero;stroke:none"
             id="path162"
             inkscape:connector-curvature="0" /></g><g
           id="g164"
           transform="translate(120.3394,128.3389)"><path
             d="m 0,0 c -0.025,0.013 -0.05,0.027 -0.075,0.04 -0.516,0.273 -0.516,-0.749 0,-0.476 L 0,-0.396 C 0.149,-0.317 0.149,-0.079 0,0"
             style="fill:#8c6c6c;fill-opacity:1;fill-rule:nonzero;stroke:none"
             id="path166"
             inkscape:connector-curvature="0" /></g><g
           id="g168"
           transform="translate(120.7324,126.8301)"><path
             d="m 0,0 c -0.087,0.248 -0.414,0.191 -0.442,-0.06 -0.008,-0.075 -0.015,-0.135 0.002,-0.21 0.018,-0.076 0.099,-0.135 0.176,-0.134 0.013,0.001 0.025,0.001 0.036,0.001 0.077,0.001 0.164,0.041 0.198,0.113 C 0.021,-0.184 0.04,-0.113 0,0"
             style="fill:#8c6c6c;fill-opacity:1;fill-rule:nonzero;stroke:none"
             id="path170"
             inkscape:connector-curvature="0" /></g><g
           id="g172"
           transform="translate(119.3911,126.2651)"><path
             d="M 0,0 C -0.106,-0.044 -0.142,-0.059 -0.233,-0.129 -0.377,-0.24 -0.304,-0.5 -0.101,-0.443 0.008,-0.413 0.045,-0.397 0.143,-0.34 0.318,-0.237 0.2,0.083 0,0"
             style="fill:#8c6c6c;fill-opacity:1;fill-rule:nonzero;stroke:none"
             id="path174"
             inkscape:connector-curvature="0" /></g><g
           id="g176"
           transform="translate(118.5229,125.0347)"><path
             d="m 0,0 c -0.031,0.005 -0.063,0.01 -0.094,0.014 -0.394,0.061 -0.397,-0.532 0,-0.471 0.031,0.005 0.063,0.01 0.094,0.015 0.219,0.033 0.219,0.408 0,0.442"
             style="fill:#8c6c6c;fill-opacity:1;fill-rule:nonzero;stroke:none"
             id="path178"
             inkscape:connector-curvature="0" /></g><g
           id="g180"
           transform="translate(119.7207,124.0171)"><path
             d="M 0,0 C -0.13,0.124 -0.234,0.109 -0.411,0.104 -0.627,0.1 -0.843,0.095 -1.059,0.09 -1.101,0.089 -1.142,0.07 -1.174,0.041 -1.183,0.033 -1.189,0.026 -1.196,0.016 c -0.051,-0.063 -0.065,-0.153 0.009,-0.224 0.018,-0.016 0.034,-0.031 0.051,-0.047 0.041,-0.038 0.112,-0.068 0.168,-0.044 0.029,0.011 0.046,0.023 0.062,0.037 0.165,-0.004 0.33,-0.008 0.495,-0.011 C -0.23,-0.278 -0.133,-0.294 0,-0.169 0.046,-0.125 0.046,-0.043 0,0"
             style="fill:#8c6c6c;fill-opacity:1;fill-rule:nonzero;stroke:none"
             id="path182"
             inkscape:connector-curvature="0" /></g><g
           id="g184"
           transform="translate(120.7368,125.7686)"><path
             d="M 0,0 C -0.263,-0.263 0.239,-0.607 0.382,-0.295 0.49,-0.059 0.21,0.21 0,0"
             style="fill:#8c6c6c;fill-opacity:1;fill-rule:nonzero;stroke:none"
             id="path186"
             inkscape:connector-curvature="0" /></g><g
           id="g188"
           transform="translate(121.916,126.5513)"><path
             d="m 0,0 -0.042,0.074 c -0.036,0.064 -0.134,0.064 -0.17,0 L -0.253,0 C -0.409,-0.274 0.155,-0.274 0,0"
             style="fill:#8c6c6c;fill-opacity:1;fill-rule:nonzero;stroke:none"
             id="path190"
             inkscape:connector-curvature="0" /></g><g
           id="g192"
           transform="translate(122.4756,130.1519)"><path
             d="m 0,0 c -0.086,0.258 -0.501,0.142 -0.407,-0.112 0.051,-0.139 0.1,-0.266 0.168,-0.384 -0.156,0.063 -0.282,0.086 -0.43,-0.006 -0.056,-0.034 -0.101,-0.115 -0.074,-0.182 0.075,-0.187 0.186,-0.244 0.383,-0.294 0.2,-0.051 0.313,0.106 0.298,0.258 0.07,-0.054 0.159,-0.003 0.169,0.08 C 0.137,-0.401 0.075,-0.223 0,0"
             style="fill:#8c6c6c;fill-opacity:1;fill-rule:nonzero;stroke:none"
             id="path194"
             inkscape:connector-curvature="0" /></g><g
           id="g196"
           transform="translate(120.0962,130.8354)"><path
             d="m 0,0 c -0.031,0.005 -0.062,0.01 -0.094,0.016 -0.11,0.018 -0.255,-0.01 -0.308,-0.126 -0.05,-0.109 -0.05,-0.166 0,-0.275 0.053,-0.117 0.196,-0.144 0.308,-0.126 C -0.062,-0.506 -0.031,-0.5 0,-0.496 0.245,-0.455 0.245,-0.041 0,0"
             style="fill:#8c6c6c;fill-opacity:1;fill-rule:nonzero;stroke:none"
             id="path198"
             inkscape:connector-curvature="0" /></g><g
           id="g200"
           transform="translate(118.5288,130.0244)"><path
             d="m 0,0 c -0.13,-0.077 -0.183,-0.13 -0.23,-0.272 -0.031,-0.09 0.035,-0.182 0.118,-0.209 0.126,-0.041 0.185,-0.036 0.308,0.016 C 0.541,-0.322 0.314,0.186 0,0"
             style="fill:#8c6c6c;fill-opacity:1;fill-rule:nonzero;stroke:none"
             id="path202"
             inkscape:connector-curvature="0" /></g><g
           id="g204"
           transform="translate(117.6387,128.5723)"><path
             d="m 0,0 c -0.017,-0.016 -0.033,-0.032 -0.05,-0.048 -0.066,-0.064 -0.068,-0.159 -0.03,-0.238 0.016,-0.032 0.038,-0.054 0.07,-0.07 0.078,-0.038 0.174,-0.036 0.238,0.031 l 0.048,0.05 C 0.451,-0.095 0.181,0.175 0,0"
             style="fill:#8c6c6c;fill-opacity:1;fill-rule:nonzero;stroke:none"
             id="path206"
             inkscape:connector-curvature="0" /></g><g
           id="g208"
           transform="translate(117.4829,126.6226)"><path
             d="M 0,0 C -0.312,0 -0.313,-0.486 0,-0.486 0.313,-0.486 0.313,0 0,0"
             style="fill:#8c6c6c;fill-opacity:1;fill-rule:nonzero;stroke:none"
             id="path210"
             inkscape:connector-curvature="0" /></g><g
           id="g212"
           transform="translate(117.2876,125.3389)"><path
             d="M 0,0 C -0.298,0 -0.299,-0.463 0,-0.463 0.298,-0.463 0.298,0 0,0"
             style="fill:#8c6c6c;fill-opacity:1;fill-rule:nonzero;stroke:none"
             id="path214"
             inkscape:connector-curvature="0" /></g><g
           id="g216"
           transform="translate(116.7979,122.9331)"><path
             d="M 0,0 C -0.351,0 -0.352,-0.546 0,-0.546 0.352,-0.546 0.352,0 0,0"
             style="fill:#8c6c6c;fill-opacity:1;fill-rule:nonzero;stroke:none"
             id="path218"
             inkscape:connector-curvature="0" /></g><g
           id="g220"
           transform="translate(118.8984,121.6675)"><path
             d="m 0,0 c -0.229,-0.106 -0.146,-0.387 -0.097,-0.587 0.019,-0.079 0.133,-0.045 0.119,0.033 -0.031,0.173 0.124,0.304 0.116,0.475 C 0.135,-0.005 0.064,0.03 0,0"
             style="fill:#8c6c6c;fill-opacity:1;fill-rule:nonzero;stroke:none"
             id="path222"
             inkscape:connector-curvature="0" /></g><g
           id="g224"
           transform="translate(119.9302,121.5439)"><path
             d="m 0,0 c -0.077,0.145 -0.289,0.018 -0.218,-0.127 0.058,-0.119 0.049,-0.108 0.149,-0.191 0.051,-0.043 0.15,-0.02 0.144,0.06 C 0.067,-0.135 0.059,-0.111 0,0"
             style="fill:#8c6c6c;fill-opacity:1;fill-rule:nonzero;stroke:none"
             id="path226"
             inkscape:connector-curvature="0" /></g><g
           id="g228"
           transform="translate(121.0015,120.8599)"><path
             d="M 0,0 C -0.017,0.044 -0.027,0.089 -0.033,0.136 -0.026,0.309 -0.307,0.352 -0.339,0.178 -0.377,-0.023 -0.285,-0.19 -0.063,-0.155 0.011,-0.143 0.024,-0.055 0,0"
             style="fill:#8c6c6c;fill-opacity:1;fill-rule:nonzero;stroke:none"
             id="path230"
             inkscape:connector-curvature="0" /></g><g
           id="g232"
           transform="translate(122.5195,126.4243)"><path
             d="M 0,0 C -0.051,0.051 -0.085,0.079 -0.148,0.113 -0.309,0.203 -0.489,0.024 -0.399,-0.138 -0.364,-0.2 -0.337,-0.235 -0.286,-0.286 -0.1,-0.468 0.182,-0.186 0,0"
             style="fill:#8c6c6c;fill-opacity:1;fill-rule:nonzero;stroke:none"
             id="path234"
             inkscape:connector-curvature="0" /></g><g
           id="g236"
           transform="translate(123.3179,127.79)"><path
             d="m 0,0 c -0.02,0.01 -0.04,0.02 -0.06,0.03 -0.177,0.088 -0.355,-0.089 -0.267,-0.267 0.01,-0.02 0.02,-0.04 0.03,-0.06 0.041,-0.083 0.158,-0.126 0.245,-0.099 C 0.034,-0.37 0.073,-0.332 0.1,-0.245 0.126,-0.159 0.083,-0.041 0,0"
             style="fill:#8c6c6c;fill-opacity:1;fill-rule:nonzero;stroke:none"
             id="path238"
             inkscape:connector-curvature="0" /></g><g
           id="g240"
           transform="translate(120.6226,123.9399)"><path
             d="m 0,0 c -0.065,0.056 -0.146,0.056 -0.211,0 -0.136,-0.116 -0.123,-0.226 -0.101,-0.399 0.034,-0.265 0.379,-0.265 0.413,0 C 0.123,-0.23 0.136,-0.116 0,0"
             style="fill:#8c6c6c;fill-opacity:1;fill-rule:nonzero;stroke:none"
             id="path242"
             inkscape:connector-curvature="0" /></g><g
           id="g244"
           transform="translate(117.7676,115.54)"><path
             d="M 0,0 C -0.06,0.156 -0.138,0.278 -0.251,0.401 -0.414,0.577 -0.689,0.301 -0.514,0.138 -0.392,0.025 -0.269,-0.053 -0.113,-0.113 -0.05,-0.137 0.024,-0.062 0,0"
             style="fill:#8c6c6c;fill-opacity:1;fill-rule:nonzero;stroke:none"
             id="path246"
             inkscape:connector-curvature="0" /></g><g
           id="g248"
           transform="translate(120.1719,115.7368)"><path
             d="m 0,0 c -0.366,-0.063 -0.575,-0.557 -0.686,-0.866 -0.075,-0.211 0.263,-0.303 0.337,-0.092 0.063,0.181 0.149,0.343 0.264,0.497 C 0,-0.347 0.081,-0.259 0.118,-0.119 0.139,-0.042 0.071,0.012 0,0"
             style="fill:#8c6c6c;fill-opacity:1;fill-rule:nonzero;stroke:none"
             id="path250"
             inkscape:connector-curvature="0" /></g><g
           id="g252"
           transform="translate(116.0845,127.3657)"><path
             d="m 0,0 c -0.065,-0.261 -0.13,-0.522 -0.196,-0.783 -0.009,-0.036 0.048,-0.052 0.057,-0.015 0.065,0.26 0.131,0.522 0.196,0.782 C 0.066,0.021 0.009,0.037 0,0"
             style="fill:#8c6c6c;fill-opacity:1;fill-rule:nonzero;stroke:none"
             id="path254"
             inkscape:connector-curvature="0" /></g><g
           id="g256"
           transform="translate(139.1699,107.8076)"><path
             d="m 0,0 c -1.434,-2.369 -5.383,-3.209 -7.756,-2.025 -0.018,0.008 -0.035,-0.018 -0.016,-0.028 2.333,-1.23 6.701,-0.689 7.838,2.025 C 0.083,0.011 0.021,0.035 0,0"
             style="fill:#8c6c6c;fill-opacity:1;fill-rule:nonzero;stroke:none"
             id="path258"
             inkscape:connector-curvature="0" /></g><g
           id="g260"
           transform="translate(138.6504,113.3159)"><path
             d="M 0,0 C -0.011,0.053 -0.096,0.041 -0.095,-0.013 -0.045,-2.5 0.175,-5.324 -2.424,-6.664 -2.459,-6.682 -2.429,-6.73 -2.394,-6.715 0.183,-5.594 0.49,-2.446 0,0"
             style="fill:#8c6c6c;fill-opacity:1;fill-rule:nonzero;stroke:none"
             id="path262"
             inkscape:connector-curvature="0" /></g><g
           id="g264"
           transform="translate(134.5059,112.9834)"><path
             d="M 0,0 C -0.126,0.24 -0.475,0.029 -0.36,-0.211 -0.299,-0.34 -0.256,-0.394 -0.114,-0.42 -0.062,-0.43 0,-0.415 0.025,-0.363 0.098,-0.215 0.078,-0.147 0,0"
             style="fill:#8c6c6c;fill-opacity:1;fill-rule:nonzero;stroke:none"
             id="path266"
             inkscape:connector-curvature="0" /></g><g
           id="g268"
           transform="translate(134.9072,111.1406)"><path
             d="m 0,0 c -0.042,0.118 -0.246,0.111 -0.234,-0.032 0.025,-0.316 -0.011,-0.835 0.243,-1.06 0.052,-0.046 0.154,-0.051 0.187,0.024 C 0.343,-0.742 0.111,-0.314 0,0"
             style="fill:#8c6c6c;fill-opacity:1;fill-rule:nonzero;stroke:none"
             id="path270"
             inkscape:connector-curvature="0" /></g><g
           id="g272"
           transform="translate(136.0928,112.3174)"><path
             d="m 0,0 c -0.034,0.111 -0.19,0.111 -0.226,0 -0.064,-0.21 -0.131,-0.429 0.031,-0.604 0.042,-0.044 0.124,-0.044 0.166,0 C 0.132,-0.43 0.064,-0.208 0,0"
             style="fill:#8c6c6c;fill-opacity:1;fill-rule:nonzero;stroke:none"
             id="path274"
             inkscape:connector-curvature="0" /></g><g
           id="g276"
           transform="translate(136.8623,114.4351)"><path
             d="m 0,0 c -0.223,-0.022 -0.396,-0.157 -0.469,-0.366 -0.013,-0.041 0.004,-0.072 0.03,-0.099 -0.043,0.006 -0.082,0.011 -0.111,0.02 -0.135,0.042 -0.24,-0.141 -0.138,-0.238 0.16,-0.151 0.333,-0.237 0.551,-0.177 0.058,0.016 0.111,0.065 0.124,0.124 0.042,0.179 -0.119,0.229 -0.284,0.253 0.012,0.009 0.026,0.013 0.034,0.03 0.129,0.29 0.357,0.052 0.558,0.06 0.044,0.002 0.093,0.031 0.102,0.078 C 0.444,-0.081 0.198,0.02 0,0"
             style="fill:#8c6c6c;fill-opacity:1;fill-rule:nonzero;stroke:none"
             id="path278"
             inkscape:connector-curvature="0" /></g><g
           id="g280"
           transform="translate(135.2646,116.1167)"><path
             d="M 0,0 C -0.127,0.057 -0.229,-0.079 -0.146,-0.187 0.039,-0.42 0.23,-0.648 0.542,-0.669 0.603,-0.674 0.653,-0.604 0.635,-0.547 0.54,-0.254 0.269,-0.12 0,0"
             style="fill:#8c6c6c;fill-opacity:1;fill-rule:nonzero;stroke:none"
             id="path282"
             inkscape:connector-curvature="0" /></g><g
           id="g284"
           transform="translate(132.9434,110.8179)"><path
             d="m 0,0 c 0.009,0.208 -0.33,0.26 -0.37,0.05 -0.072,-0.388 -0.276,-0.816 -0.053,-1.189 0.042,-0.069 0.144,-0.086 0.202,-0.026 C 0.081,-0.853 -0.018,-0.395 0,0"
             style="fill:#8c6c6c;fill-opacity:1;fill-rule:nonzero;stroke:none"
             id="path286"
             inkscape:connector-curvature="0" /></g><g
           id="g288"
           transform="translate(133.6855,108.9585)"><path
             d="m 0,0 c -0.011,0.195 -0.293,0.195 -0.304,0 -0.015,-0.3 -0.133,-0.675 0.041,-0.946 0.053,-0.082 0.169,-0.082 0.222,0 C 0.133,-0.674 0.016,-0.301 0,0"
             style="fill:#8c6c6c;fill-opacity:1;fill-rule:nonzero;stroke:none"
             id="path290"
             inkscape:connector-curvature="0" /></g><g
           id="g292"
           transform="translate(135.2812,108.665)"><path
             d="m 0,0 c -0.013,0.233 -0.351,0.233 -0.363,0 -0.008,-0.153 -0.024,-0.237 0.064,-0.362 0.062,-0.087 0.173,-0.087 0.235,0 C 0.023,-0.237 0.008,-0.15 0,0"
             style="fill:#8c6c6c;fill-opacity:1;fill-rule:nonzero;stroke:none"
             id="path294"
             inkscape:connector-curvature="0" /></g><g
           id="g296"
           transform="translate(137.123,110.7813)"><path
             d="M 0,0 C -0.021,0.03 -0.033,0.062 -0.034,0.099 -0.071,0.287 -0.381,0.336 -0.462,0.154 -0.538,-0.014 -0.535,-0.172 -0.389,-0.3 -0.177,-0.485 0.131,-0.255 0,0"
             style="fill:#8c6c6c;fill-opacity:1;fill-rule:nonzero;stroke:none"
             id="path298"
             inkscape:connector-curvature="0" /></g><g
           id="g300"
           transform="translate(137.21,112.272)"><path
             d="m 0,0 c -0.194,0.062 -0.271,-0.2 -0.129,-0.306 0.215,-0.16 0.495,-0.401 0.778,-0.318 0.063,0.019 0.112,0.09 0.089,0.156 C 0.636,-0.175 0.271,-0.086 0,0"
             style="fill:#8c6c6c;fill-opacity:1;fill-rule:nonzero;stroke:none"
             id="path302"
             inkscape:connector-curvature="0" /></g><g
           id="g304"
           transform="translate(137.6484,114.0259)"><path
             d="m 0,0 c -0.239,0.131 -0.443,-0.22 -0.213,-0.364 0.303,-0.19 0.317,-0.518 0.532,-0.769 0.036,-0.042 0.12,-0.043 0.157,0 C 0.811,-0.733 0.367,-0.2 0,0"
             style="fill:#8c6c6c;fill-opacity:1;fill-rule:nonzero;stroke:none"
             id="path306"
             inkscape:connector-curvature="0" /></g><g
           id="g308"
           transform="translate(121.2837,107.0962)"><path
             d="m 0,0 c -0.299,0.052 -0.522,-0.355 -0.219,-0.52 0.263,-0.143 0.612,-0.306 0.886,-0.111 0.052,0.036 0.084,0.096 0.066,0.16 C 0.641,-0.151 0.295,-0.052 0,0"
             style="fill:#8c6c6c;fill-opacity:1;fill-rule:nonzero;stroke:none"
             id="path310"
             inkscape:connector-curvature="0" /></g><g
           id="g312"
           transform="translate(122.4746,109.1616)"><path
             d="m 0,0 -0.098,0.004 c -0.393,0.017 -0.393,-0.627 0,-0.61 L 0,-0.602 C 0.387,-0.585 0.387,-0.017 0,0"
             style="fill:#8c6c6c;fill-opacity:1;fill-rule:nonzero;stroke:none"
             id="path314"
             inkscape:connector-curvature="0" /></g><g
           id="g316"
           transform="translate(123.9819,106.5068)"><path
             d="m 0,0 c -0.249,0.002 -0.468,-0.158 -0.722,-0.13 -0.291,0.032 -0.316,-0.402 -0.066,-0.487 0.333,-0.112 0.825,-0.139 1.005,0.239 C 0.298,-0.209 0.202,-0.001 0,0"
             style="fill:#8c6c6c;fill-opacity:1;fill-rule:nonzero;stroke:none"
             id="path318"
             inkscape:connector-curvature="0" /></g><g
           id="g320"
           transform="translate(125.5044,108.9546)"><path
             d="m 0,0 c -0.062,0.055 -0.123,0.08 -0.183,0.092 0.15,0.151 0.089,0.466 -0.187,0.475 -0.122,0.004 -0.235,0.019 -0.328,0.104 -0.235,0.215 -0.554,-0.109 -0.347,-0.347 0.113,-0.13 0.247,-0.22 0.399,-0.269 -0.013,-0.001 -0.023,-0.004 -0.035,-0.004 -0.186,-0.004 -0.186,-0.286 0,-0.289 C -0.409,-0.243 -0.22,-0.381 0,-0.188 0.052,-0.143 0.052,-0.045 0,0"
             style="fill:#8c6c6c;fill-opacity:1;fill-rule:nonzero;stroke:none"
             id="path322"
             inkscape:connector-curvature="0" /></g><g
           id="g324"
           transform="translate(125.459,110.7056)"><path
             d="m 0,0 c -0.11,0.078 -0.208,0.099 -0.342,0.1 -0.236,0.004 -0.237,-0.37 0,-0.367 0.134,0.002 0.233,0.023 0.342,0.1 0.062,0.044 0.062,0.124 0,0.167"
             style="fill:#8c6c6c;fill-opacity:1;fill-rule:nonzero;stroke:none"
             id="path326"
             inkscape:connector-curvature="0" /></g><g
           id="g328"
           transform="translate(126.5186,112.2881)"><path
             d="m 0,0 c 0.017,-0.023 0.034,-0.045 0.051,-0.068 0.064,-0.083 0.163,-0.083 0.226,0 C 0.294,-0.045 0.312,-0.023 0.329,0 0.594,0.349 -0.265,0.349 0,0"
             style="fill:#8c6c6c;fill-opacity:1;fill-rule:nonzero;stroke:none"
             id="path330"
             inkscape:connector-curvature="0" /></g><g
           id="g332"
           transform="translate(121.9858,116.0254)"><path
             d="m 0,0 c -0.188,0.023 -0.274,-0.246 -0.151,-0.364 0.095,-0.091 0.157,-0.202 0.264,-0.278 0.04,-0.028 0.116,-0.03 0.155,0 0.01,0.008 0.02,0.016 0.03,0.023 0.085,0.065 0.115,0.138 0.099,0.243 C 0.362,-0.147 0.221,-0.028 0,0"
             style="fill:#8c6c6c;fill-opacity:1;fill-rule:nonzero;stroke:none"
             id="path334"
             inkscape:connector-curvature="0" /></g><g
           id="g336"
           transform="translate(119.8784,113.6436)"><path
             d="m 0,0 c -0.124,0.171 -0.412,0.003 -0.285,-0.167 0.082,-0.11 0.068,-0.247 0.143,-0.361 0.028,-0.044 0.097,-0.074 0.144,-0.038 C 0.198,-0.418 0.131,-0.181 0,0"
             style="fill:#8c6c6c;fill-opacity:1;fill-rule:nonzero;stroke:none"
             id="path338"
             inkscape:connector-curvature="0" /></g><g
           id="g340"
           transform="translate(117.2837,113.4268)"><path
             d="M 0,0 C -0.195,0.148 -0.384,-0.182 -0.192,-0.329 -0.063,-0.427 0,-0.578 0.141,-0.656 0.209,-0.693 0.294,-0.659 0.316,-0.584 0.389,-0.341 0.179,-0.137 0,0"
             style="fill:#8c6c6c;fill-opacity:1;fill-rule:nonzero;stroke:none"
             id="path342"
             inkscape:connector-curvature="0" /></g><g
           id="g344"
           transform="translate(116.875,117.9131)"><path
             d="m 0,0 c -0.04,0.172 -0.31,0.173 -0.35,0 -0.041,-0.179 -0.05,-0.352 0.066,-0.503 0.062,-0.08 0.157,-0.08 0.218,0 C 0.05,-0.352 0.042,-0.179 0,0"
             style="fill:#8c6c6c;fill-opacity:1;fill-rule:nonzero;stroke:none"
             id="path346"
             inkscape:connector-curvature="0" /></g><g
           id="g348"
           transform="translate(112.9741,119.5317)"><path
             d="m 0,0 c 0.006,0.04 -0.052,0.059 -0.062,0.017 -0.571,-2.295 -0.61,-4.885 1.667,-6.222 0.007,-0.004 0.014,0.008 0.007,0.013 C -0.581,-4.877 -0.316,-2.174 0,0"
             style="fill:#8c6c6c;fill-opacity:1;fill-rule:nonzero;stroke:none"
             id="path350"
             inkscape:connector-curvature="0" /></g><g
           id="g352"
           transform="translate(111.6587,113.4883)"><path
             d="m 0,0 c -0.38,0.869 -0.673,1.758 -0.724,2.713 -0.002,0.027 -0.04,0.026 -0.041,0 -0.067,-0.985 0.108,-1.94 0.678,-2.764 C -0.05,-0.105 0.026,-0.059 0,0"
             style="fill:#8c6c6c;fill-opacity:1;fill-rule:nonzero;stroke:none"
             id="path354"
             inkscape:connector-curvature="0" /></g></g></g><text
       transform="matrix(1,0,0,-1,27.1089,96.9629)"
       style="font-variant:normal;font-weight:normal;font-stretch:normal;font-size:12px;font-family:Sacramento;-inkscape-font-specification:Sacramento-Regular;writing-mode:lr-tb;fill:#8c6c6c;fill-opacity:1;fill-rule:nonzero;stroke:none"
       id="text360"><tspan
         x="0 3.96 13.188 22.416"
         y="0"
         sodipodi:role="line"
         id="tspan356">100%</tspan><tspan
         x="-9.6719999 -6.0359998 -2.9760001 1.152 4.092 6.7319999 10.164 14.664 18.455999 21.888 25.68 28.620001 32.748001 35.543999"
         y="10.8"
         sodipodi:role="line"
         id="tspan358">real chocolate</tspan></text>
<text
       transform="matrix(1,0,0,-1,113.9995,35.9063)"
       style="font-variant:normal;font-weight:500;font-stretch:normal;font-size:5px;font-family:'Roboto Medium';-inkscape-font-specification:Roboto-Medium;writing-mode:lr-tb;fill:#8c6c6c;fill-opacity:1;fill-rule:nonzero;stroke:none"
       id="text364"><tspan
         x="0 2.8399999 5.6799998 8.5200005 9.7650003 12.6 14.36 17.065001 21.415001"
         y="0"
         sodipodi:role="line"
         id="tspan362">100 grams</tspan></text>
<text
       transform="matrix(1,0,0,-1,83.1592,67.0771)"
       style="font-variant:normal;font-weight:normal;font-stretch:normal;font-size:42px;font-family:Sacramento;-inkscape-font-specification:Sacramento-Regular;writing-mode:lr-tb;fill:#8c6c6c;fill-opacity:1;fill-rule:nonzero;stroke:none"
       id="text368"><tspan
         x="0 12.012 25.284 38.556 53.214001 62.034 72.744003"
         y="0"
         sodipodi:role="line"
         id="tspan366">cookies</tspan></text>
<text
       transform="matrix(1,0,0,-1,90.1064,56.1777)"
       style="font-variant:normal;font-weight:300;font-stretch:normal;font-size:6px;font-family:'Roboto Light';-inkscape-font-specification:Roboto-Light;writing-mode:lr-tb;fill:#8c6c6c;fill-opacity:1;fill-rule:nonzero;stroke:none"
       id="text372"><tspan
         x="0 6.4559999 9.132 13.794 19.118999 21.657 26.631001 31.955999 37.098 42.071999 47.214001 49.751999 54.726002 60.050999 62.727001 67.502998"
         y="0"
         sodipodi:role="line"
         id="tspan370">WITH CHOCO CHIPS</tspan></text>
<text
       transform="matrix(1,0,0,-1,189.7085,97.9092)"
       style="font-variant:normal;font-weight:normal;font-stretch:normal;font-size:9px;font-family:Sacramento;-inkscape-font-specification:Sacramento-Regular;writing-mode:lr-tb;fill:#8c6c6c;fill-opacity:1;fill-rule:nonzero;stroke:none"
       id="text376"><tspan
         x="0 11.961 15.057 19.062 22.212 24.209999 27.306 29.879999 31.976999 35.126999 37.854 40.148998 43.433998 45.414001 48.816002"
         y="0"
         sodipodi:role="line"
         id="tspan374">Manufactured by</tspan></text>
<text
       transform="matrix(1,0,0,-1,203.498,60.3096)"
       style="font-variant:normal;font-weight:300;font-stretch:normal;font-size:4px;font-family:'Roboto Light';-inkscape-font-specification:Roboto-Light;writing-mode:lr-tb;fill:#8c6c6c;fill-opacity:1;fill-rule:nonzero;stroke:none"
       id="text380"><tspan
         x="0 2.464 4.6079998 6.6680002 8.6280003 10.772 12.992 15.06 17.284 18.256001 20.496 22.691999 23.532"
         y="0"
         sodipodi:role="line"
         id="tspan378">Packaged on: </tspan></text>
<text
       transform="matrix(1,0,0,-1,201.858,53.5096)"
       style="font-variant:normal;font-weight:normal;font-stretch:normal;font-size:4px;font-family:Roboto;-inkscape-font-specification:Roboto-Regular;writing-mode:lr-tb;fill:#8c6c6c;fill-opacity:1;fill-rule:nonzero;stroke:none"
       id="text384"><tspan
         x="0 3.5120001 5.7119999 7.0840001 9.2080002 11.48 12.476 14.728 16.98 17.768 18.764 21.016001 23.268 25.52"
         y="0"
         sodipodi:role="line"
         id="tspan382">March 30, 2020</tspan></text>
<text
       transform="matrix(1,0,0,-1,205.294,46.7096)"
       style="font-variant:normal;font-weight:300;font-stretch:normal;font-size:4px;font-family:'Roboto Light';-inkscape-font-specification:Roboto-Light;writing-mode:lr-tb;fill:#8c6c6c;fill-opacity:1;fill-rule:nonzero;stroke:none"
       id="text388"><tspan
         x="0 2.4519999 4.52 6.5440001 7.8280001 8.8000002 11.016 13.084 14.408 16.648001 17.992001 20.059999"
         y="0"
         sodipodi:role="line"
         id="tspan386">Best before:</tspan></text>
<text
       transform="matrix(1,0,0,-1,201.858,39.9096)"
       style="font-variant:normal;font-weight:normal;font-stretch:normal;font-size:4px;font-family:Roboto;-inkscape-font-specification:Roboto-Regular;writing-mode:lr-tb;fill:#8c6c6c;fill-opacity:1;fill-rule:nonzero;stroke:none"
       id="text392"><tspan
         x="0 3.5120001 5.7119999 7.0840001 9.2080002 11.48 12.476 14.728 16.98 17.768 18.764 21.016001 23.268 25.52"
         y="0"
         sodipodi:role="line"
         id="tspan390">March 31, 2021</tspan></text>
<text
       transform="matrix(1,0,0,-1,92.606,15.1736)"
       style="font-variant:normal;font-weight:300;font-stretch:normal;font-size:4px;font-family:'Roboto Light';-inkscape-font-specification:Roboto-Light;writing-mode:lr-tb;fill:#8c6c6c;fill-opacity:1;fill-rule:nonzero;stroke:none"
       id="text396"><tspan
         x="0 3.5439999 5.6880002 7.9120002 9.9799995 10.952 13.968 14.864 16.148001 18.344 19.316 21.556 22.9 25.120001 27.264 29.459999 30.356001 32.416 33.388 35.448002 37.644001 39.883999 41.944 44.183998 45.080002 47.223999 48.507999 50.576 51.548 53.692001 55.888 58.112 59.084 61.324001 63.467999 64.751999"
         y="0"
         sodipodi:role="line"
         id="tspan394">made with organic chocolate and oats</tspan></text>
<text
       transform="matrix(1,0,0,-1,106.678,10.3736)"
       style="font-variant:normal;font-weight:300;font-stretch:normal;font-size:4px;font-family:'Roboto Light';-inkscape-font-specification:Roboto-Light;writing-mode:lr-tb;fill:#8c6c6c;fill-opacity:1;fill-rule:nonzero;stroke:none"
       id="text400"><tspan
         x="0 2.22 3.1159999 5.3119998 6.5960002 8.6639996 10.86 11.832 13.156 14.5 16.568001 18.636 19.608 20.9 21.872 24.068001 26.308001 28.504 29.648001 31.868 35.411999 37.652"
         y="0"
         sodipodi:role="line"
         id="tspan398">gluten free  non-gmo </tspan></text>
<text
       transform="matrix(1,0,0,-1,21.01,70.5616)"
       style="font-variant:normal;font-weight:300;font-stretch:normal;font-size:4px;font-family:'Roboto Light';-inkscape-font-specification:Roboto-Light;writing-mode:lr-tb;fill:#8c6c6c;fill-opacity:1;fill-rule:nonzero;stroke:none"
       id="text420"><tspan
         x="0 3.46 5.6040001 7.8280001 9.8959999 10.868 13.884 14.78 16.063999 18.26 19.232 21.472 23.667999 24.563999 26.464001 27.436001 28.719999 30.916 32.984001 33.956001 36.172001 38.240002 40.264"
         y="0"
         sodipodi:role="line"
         id="tspan402">Made with only the best</tspan><tspan
         x="-1.604 0.61199999 2.756 4.04 6.0999999 8.2959995 9.2679996 11.508 12.832 13.804 14.7 16.896 19.115999 20.459999 22.528 24.752001 25.648001 27.716 29.912001 31.195999 33.220001 34.192001 35.515999 36.860001 38.928001 40.952"
         y="7"
         sodipodi:role="line"
         id="tspan404">batch of ingredients fresh</tspan><tspan
         x="5.2280002 6.552 7.8959999 10.136 13.68 14.652 16.892 19.087999 20.431999 21.403999 22.728001 24.872 26.216 29.76 30.716 31.688 34.076"
         y="14"
         sodipodi:role="line"
         id="tspan406">from our farm. To</tspan><tspan
         x="-2.0599999 1.484 2.3800001 4.4400001 5.7839999 8.0240002 11.04 13.184 15.108 17.176001 17.940001 18.912001 20.256001 22.323999 25.868 28.108 30.032 32.099998 33.071999 34.355999 36.551998 38.619999 39.591999 40.487999 41.383999"
         y="21"
         sodipodi:role="line"
         id="tspan408">microwave, remove the lid</tspan><tspan
         x="-4.7160001 -2.572 -0.37599999 1.848 2.8199999 4.8439999 6.9120002 7.8080001 9.8760004 11.936 13.22 14.192 15.088 17.327999 20.344 21.316 23.532 25.771999 28.788 30.856001 32.200001 33.172001 35.316002 37.512001 39.736 40.708 42.731998 44.015999 44.911999"
         y="28"
         sodipodi:role="line"
         id="tspan410">and select low power and stir</tspan><tspan
         x="-0.0040000002 2.2360001 4.296 6.3559999 8.5 10.524 11.42 13.66 15.856 18 18.896 19.792 21.691999 22.664 24.860001 27.056 28.34 29.236 30.132 31.104 33.164001 34.060001 36.127998 38.271999 39.616001 40.571999"
         y="35"
         sodipodi:role="line"
         id="tspan412">occasionally until clear. </tspan><tspan
         x="171.34399 174.804 176.948 180.492 182.636 183.608 186.31599 188.51199 189.408 191.604 193.748 194.46001 196.48399 197.45599 199.70799 201.948 204.188 206.412 207.384 210.12 211.464 213.70399 215.89999"
         y="-13.748"
         sodipodi:role="line"
         id="tspan414">Mama Quinas Food Group</tspan><tspan
         x="181.98399 184.2 186.416 187.388 189.756 191.952 192.84801 194.192 195.088 197.15601 199.056 200.028 202.528 204.452 206.52"
         y="-6.7480001"
         sodipodi:role="line"
         id="tspan416">44 Shirley Ave.</tspan><tspan
         x="174.104 177.688 179.756 181.78 183.064 184.036 186.632 188.828 189.724 191.784 193.92799 196.14799 198.388 199.15199 200.12399 201.188 203.29601 204.26801 206.48399 208.7 210.916 213.132"
         y="0.252"
         sodipodi:role="line"
         id="tspan418">West Chicago, IL 60185</tspan></text>
</g></svg>